<svg xmlns="http://www.w3.org/2000/svg" viewBox="0 0 1048.3 967.57"><defs><style>.cls-1{fill:#0c0c0c;}.cls-2{fill:#dff346;}.cls-3{fill:#2a2a2b;}.cls-4{fill:#f8f5e6;}</style></defs><g id="Layer_3" data-name="Layer 3"><rect class="cls-1" width="1048.3" height="967.57" rx="80.72"/></g><g id="Layer_4" data-name="Layer 4"><path class="cls-2" d="M548.24,128.59,584.77,409a15.34,15.34,0,0,0,24.58,10.18L833.47,246.74c5.34-4.11,12.19,2.73,8.08,8.07L669.08,478.93a15.36,15.36,0,0,0,10.18,24.59L959.69,540c6.69.87,6.69,10.55,0,11.42L679.26,588a15.35,15.35,0,0,0-10.18,24.58L841.55,836.69c4.11,5.35-2.74,12.19-8.08,8.08L609.35,672.3a15.35,15.35,0,0,0-24.58,10.19L548.24,962.91c-.87,6.69-10.55,6.69-11.42,0L500.29,682.49a15.35,15.35,0,0,0-24.58-10.19L251.59,844.77c-5.34,4.11-12.19-2.73-8.08-8.08L416,612.57A15.35,15.35,0,0,0,405.8,588L125.37,551.46c-6.69-.87-6.69-10.55,0-11.42L405.8,503.52A15.36,15.36,0,0,0,416,478.93L243.51,254.81c-4.11-5.34,2.74-12.18,8.08-8.07L475.71,419.2A15.34,15.34,0,0,0,500.29,409l36.53-280.43C537.69,121.91,547.37,121.91,548.24,128.59Z" transform="translate(-15.85 -61.97)"/><rect class="cls-3" x="423.59" y="412.48" width="206.18" height="142.61" rx="44.98"/><circle class="cls-4" cx="476.47" cy="481.17" r="47.4"/><ellipse cx="491.26" cy="481.17" rx="23.61" ry="36.57"/><circle class="cls-4" cx="576.56" cy="481.17" r="47.4"/><ellipse cx="591.35" cy="481.17" rx="23.61" ry="36.57"/></g></svg>